<svg width="27" height="36" viewBox="0 0 27 36" fill="none" xmlns="http://www.w3.org/2000/svg">
<path d="M24.0094 11.4485C23.1384 11.0911 22.2371 11.0604 21.5282 11.326C21.2041 10.9072 20.7787 10.5702 20.2723 10.3149C19.3001 9.83489 18.1962 9.7634 17.3151 10.1004C16.8594 9.55915 16.2112 9.15064 15.4415 8.94638C14.7934 8.78298 14.1655 8.78298 13.6186 8.92596L13.4971 3.05362C13.4464 1.33787 12.1501 0 10.5398 0C8.91945 0 7.59275 1.37872 7.59275 3.06383V17.7294C7.28893 17.423 7.056 17.0962 6.82307 16.7694C6.2458 15.9421 5.58751 15.0026 3.78482 14.6145C2.25558 14.2877 0.949133 15.0434 0.371867 15.8911C-0.0838696 16.5651 -0.124379 17.3209 0.270592 17.9132C0.381994 18.0868 0.523779 18.2604 0.665563 18.4545C1.13143 19.057 1.77959 19.8945 2.40749 21.6306C3.27845 24.0511 4.79757 25.1438 6.01287 26.0323C7.18766 26.88 8.06875 27.5234 8.28142 29.1166C7.88645 29.1472 7.5725 29.474 7.5725 29.8826V35.234C7.5725 35.6528 7.91683 36 8.33206 36H25.1335C25.5488 36 25.8931 35.6528 25.8931 35.234V29.8723C25.8931 29.4638 25.5791 29.137 25.174 29.1064C25.2753 28.126 25.5488 27.1353 25.8323 26.0936C26.207 24.7353 26.5919 23.3362 26.5919 21.9064V15.4417C26.5919 13.6034 25.6298 12.1123 24.0094 11.4485ZM24.374 34.4681H9.09162V30.6383H9.89169H13.3148H20.1508H21.7206H24.374V34.4681ZM25.0728 21.9166C25.0728 23.1421 24.7284 24.3779 24.374 25.6953C24.0702 26.8085 23.7562 27.9523 23.6549 29.1166H21.7206H20.1508H13.3148H9.89169H9.81067C9.56761 26.7166 8.21053 25.7362 6.89396 24.7864C5.73943 23.9489 4.54438 23.0911 3.83546 21.1098C3.12654 19.1387 2.36698 18.1583 1.87073 17.5149C1.73908 17.3413 1.62767 17.1983 1.54665 17.0757C1.48589 16.9838 1.61755 16.7796 1.6378 16.7591C1.94162 16.32 2.68093 15.9421 3.481 16.1157C4.70642 16.3813 5.06089 16.8919 5.59764 17.6579C6.03312 18.2706 6.54962 19.0162 7.60288 19.6596V19.9762C7.60288 20.3949 7.94722 20.7421 8.36244 20.7421C8.77767 20.7421 9.122 20.3949 9.122 19.9762V3.06383C9.122 2.21617 9.76003 1.53191 10.55 1.53191C11.3197 1.53191 11.9577 2.22638 11.9779 3.08426L12.2008 13.2153C12.2109 13.634 12.5451 13.9609 12.9603 13.9609C12.9704 13.9609 12.9704 13.9609 12.9806 13.9609C13.3958 13.9506 13.73 13.6034 13.7199 13.1745L13.6591 10.56C13.9022 10.3557 14.4592 10.2638 15.0668 10.417C15.4213 10.5089 16.5758 10.9174 16.5758 12.2655C16.5758 12.6843 16.9202 13.0315 17.3354 13.0315C17.7506 13.0315 18.0949 12.6843 18.0949 12.2655C18.0949 11.9898 18.0646 11.7243 18.0038 11.4689C18.4697 11.3464 19.0874 11.4179 19.6039 11.6732C20.0192 11.8774 20.718 12.3677 20.718 13.3685C20.718 13.7872 21.0623 14.1345 21.4775 14.1345C21.8927 14.1345 22.2371 13.7872 22.2371 13.3685C22.2371 13.1438 22.2168 12.9191 22.1763 12.7149C22.5004 12.6332 22.9663 12.6638 23.4524 12.8579C23.9486 13.0621 25.093 13.7055 25.093 15.4417V21.9166H25.0728Z" fill="white"/>
</svg>
